<?xml version="1.0" encoding="iso-8859-1"?>
<!-- Generator: Adobe Illustrator 19.0.1, SVG Export Plug-In . SVG Version: 6.00 Build 0)  -->
<svg version="1.1" xmlns="http://www.w3.org/2000/svg" xmlns:xlink="http://www.w3.org/1999/xlink" x="0px" y="0px"
	 viewBox="0 0 128 128" style="enable-background:new 0 0 128 128;" xml:space="preserve">
<g id="_x37_">
	<path style="fill:#231F20;" d="M64.43,128c-2.691,0-5.389-0.168-8.082-0.508l0.766-6.027c11.332,1.438,22.763-0.488,33.053-5.548
		c15.107-7.429,26.241-21.009,30.548-37.255l5.894,1.55c-4.757,17.946-17.055,32.944-33.743,41.15
		C83.944,125.752,74.245,128,64.43,128z M64.435,119.796c-4.286,0.002-8.585-0.49-12.829-1.479
		c-14.596-3.401-26.99-12.263-34.897-24.952S6.326,65.679,9.739,51.134l5.935,1.384c-3.042,12.963-0.835,26.332,6.213,37.642
		c7.049,11.312,18.096,19.21,31.106,22.241c9.667,2.254,19.664,1.615,28.917-1.845l2.141,5.687
		C77.733,118.606,71.102,119.796,64.435,119.796z M32.152,119.371C21.139,113.034,12.33,103.653,6.68,92.246
		c-7.608-15.358-8.758-32.75-3.24-48.97c5.52-16.22,17.048-29.328,32.461-36.909l2.699,5.448
		C24.646,18.677,14.21,30.543,9.214,45.226c-4.997,14.685-3.955,30.428,2.933,44.331c5.116,10.328,13.088,18.818,23.054,24.554
		L32.152,119.371z M64.462,111.574c-16.328,0.002-32.259-8.307-41.212-23.267c-13.525-22.601-6.076-51.953,16.605-65.43
		c5.078-3.016,10.581-5.05,16.354-6.045l1.038,5.985c-5.034,0.867-9.836,2.643-14.271,5.277
		c-19.793,11.76-26.294,37.375-14.491,57.099c11.802,19.726,37.508,26.201,57.303,14.44c7.122-4.233,12.764-10.395,16.315-17.824
		l5.503,2.614c-4.07,8.514-10.535,15.577-18.696,20.426C81.245,109.407,72.8,111.574,64.462,111.574z M102.942,104.501l-4.183-4.417
		c7.133-6.707,12.09-15.308,14.334-24.871c2.452-10.448,1.507-21.165-2.731-30.992l5.6-2.398
		c4.757,11.027,5.817,23.051,3.067,34.774C116.511,87.324,110.948,96.974,102.942,104.501z M64.384,103.378
		c-21.866,0-39.655-17.725-39.655-39.513s17.789-39.514,39.655-39.514c7.81,0,15.368,2.261,21.856,6.54l-3.364,5.066
		c-5.488-3.618-11.882-5.532-18.492-5.532c-18.504,0-33.559,15.001-33.559,33.439s15.055,33.439,33.559,33.439
		s33.558-15,33.558-33.439c0-6.636-1.946-13.048-5.626-18.539l5.07-3.373c4.352,6.494,6.652,14.071,6.652,21.913
		C104.038,85.654,86.249,103.378,64.384,103.378z M64.384,94.259c-16.82,0-30.503-13.634-30.503-30.393s13.683-30.394,30.503-30.394
		c16.819,0,30.502,13.635,30.502,30.394S81.202,94.259,64.384,94.259z M64.384,39.545c-13.458,0-24.407,10.91-24.407,24.32
		s10.949,24.319,24.407,24.319c13.457,0,24.406-10.909,24.406-24.319S77.841,39.545,64.384,39.545z M112.229,66.06l-6.09-0.285
		c0.384-8.156-1.642-16.192-5.859-23.239c-5.97-9.977-15.943-17.062-27.36-19.439l1.246-5.946
		c13.081,2.723,24.508,10.842,31.349,22.275C110.348,47.499,112.669,56.71,112.229,66.06z M121.975,55.033
		c-0.903-5.837-2.705-11.509-5.356-16.86c-9.04-18.251-26.596-30.26-46.961-32.125L70.216,0
		C92.71,2.059,112.1,15.324,122.087,35.484c2.926,5.907,4.915,12.173,5.913,18.623L121.975,55.033z M24.243,34.097l-4.888-3.628
		C32.71,12.608,55.401,4.346,77.161,9.415c9.272,2.16,17.88,6.652,24.893,12.988l-4.096,4.5
		c-6.247-5.646-13.918-9.647-22.185-11.574C56.375,10.811,36.147,18.177,24.243,34.097z"/>
</g>
<g id="Layer_1">
</g>
</svg>
