<svg xmlns="http://www.w3.org/2000/svg" width="140" height="70" fill="none"><path fill="#051A24" d="M37.773 30.854H23.166v4.334h10.36c-.513 6.066-5.568 8.67-10.342 8.67a11.388 11.388 0 0 1-11.436-11.54c0-6.56 5.08-11.612 11.45-11.612 4.914 0 7.81 3.132 7.81 3.132l3.033-3.143s-3.897-4.336-11.002-4.336c-9.047 0-16.046 7.636-16.046 15.883 0 8.081 6.583 15.962 16.275 15.962 8.525 0 14.765-5.84 14.765-14.476 0-1.822-.264-2.874-.264-2.874h.004zm11.967-3.14c-5.995 0-10.29 4.687-10.29 10.15 0 5.546 4.165 10.32 10.36 10.32 5.607 0 10.2-4.286 10.2-10.2 0-6.768-5.343-10.271-10.27-10.271v.001zm.058 4.02c2.947 0 5.74 2.384 5.74 6.223 0 3.757-2.781 6.21-5.754 6.21-3.267 0-5.833-2.616-5.833-6.24 0-3.547 2.543-6.193 5.856-6.193h-.009zm22.32-4.02c-5.995 0-10.29 4.687-10.29 10.15 0 5.546 4.165 10.32 10.36 10.32 5.606 0 10.2-4.286 10.2-10.2 0-6.768-5.344-10.271-10.27-10.271v.001zm.058 4.02c2.947 0 5.74 2.384 5.74 6.223 0 3.757-2.781 6.21-5.754 6.21-3.267 0-5.834-2.616-5.834-6.24 0-3.547 2.544-6.193 5.857-6.193h-.01zm21.89-4.008c-5.502 0-9.826 4.818-9.826 10.227 0 6.16 5.014 10.245 9.73 10.245 2.917 0 4.469-1.158 5.6-2.487v2.019c0 3.531-2.144 5.646-5.38 5.646-3.127 0-4.695-2.325-5.25-3.643l-3.934 1.633c1.395 2.952 4.204 6.028 9.216 6.028 5.484 0 9.639-3.445 9.639-10.671V28.34h-4.274v1.733c-1.319-1.423-3.125-2.348-5.519-2.348h-.002zm.397 4.013c2.697 0 5.467 2.303 5.467 6.236 0 3.998-2.765 6.2-5.527 6.2-2.933 0-5.662-2.38-5.662-6.163 0-3.929 2.835-6.273 5.722-6.273zm28.504-4.038c-5.19 0-9.547 4.13-9.547 10.22 0 6.447 4.857 10.27 10.033 10.27 4.331 0 7-2.368 8.575-4.491l-3.538-2.354c-.919 1.423-2.454 2.817-5.015 2.817-2.877 0-4.2-1.575-5.02-3.103l13.724-5.694-.7-1.668c-1.326-3.267-4.42-5.997-8.512-5.997zm.178 3.937c1.87 0 3.215.994 3.787 2.186l-9.165 3.83c-.397-2.965 2.415-6.016 5.366-6.016h.012zm-16.278 15.947h4.508V17.418h-4.508v30.167z"/></svg>